<svg width="24" height="24" viewBox="0 0 24 24" fill="none" xmlns="http://www.w3.org/2000/svg">
<path d="M9.14795 7.48804C8.58795 7.48804 8.14795 7.93804 8.14795 8.48804C8.14795 9.03804 8.59795 9.48804 9.14795 9.48804C9.69795 9.48804 10.1479 9.03804 10.1479 8.48804C10.1479 7.93804 9.69795 7.48804 9.14795 7.48804Z" fill="#0C760A"/>
<path d="M21.46 5.04C20.62 3.09 18.77 2 16.19 2H7.81C4.6 2 2 4.6 2 7.81V16.19C2 18.77 3.09 20.62 5.04 21.46C5.23 21.54 5.45 21.49 5.59 21.35L21.35 5.59C21.5 5.44 21.55 5.22 21.46 5.04ZM10.53 12.24C10.14 12.62 9.63 12.8 9.12 12.8C8.61 12.8 8.1 12.61 7.71 12.24C6.69 11.28 5.57 9.75 6 7.93C6.38 6.28 7.84 5.54 9.12 5.54C10.4 5.54 11.86 6.28 12.24 7.94C12.66 9.75 11.54 11.28 10.53 12.24ZM19.469 20.53C19.689 20.75 19.659 21.11 19.389 21.26C18.509 21.75 17.439 22 16.189 22H7.809C7.519 22 7.399 21.66 7.599 21.46L13.639 15.42C13.839 15.22 14.149 15.22 14.349 15.42L19.469 20.53ZM22.002 7.809V16.189C22.002 17.439 21.752 18.519 21.262 19.389C21.112 19.659 20.752 19.679 20.532 19.469L15.412 14.349C15.212 14.149 15.212 13.839 15.412 13.639L21.452 7.599C21.662 7.399 22.002 7.519 22.002 7.809Z" fill="#0C760A"/>
</svg>
