<svg width="25" height="16" viewBox="0 0 25 16" fill="none" xmlns="http://www.w3.org/2000/svg">
<path d="M12.5012 10.6174C13.2351 10.6174 13.939 10.3259 14.458 9.80688C14.977 9.28788 15.2686 8.58397 15.2686 7.85C15.2686 7.11603 14.977 6.41212 14.458 5.89313C13.939 5.37413 13.2351 5.08256 12.5012 5.08256C11.7672 5.08256 11.0633 5.37413 10.5443 5.89313C10.0253 6.41212 9.73372 7.11603 9.73372 7.85C9.73372 8.58397 10.0253 9.28788 10.5443 9.80688C11.0633 10.3259 11.7672 10.6174 12.5012 10.6174ZM21.8023 15.6977C21.6404 15.6977 21.4816 15.6526 21.3438 15.5674C21.2061 15.4823 21.0947 15.3605 21.0223 15.2156C20.9499 15.0707 20.9192 14.9086 20.9338 14.7473C20.9483 14.586 21.0075 14.4319 21.1046 14.3023C22.5071 12.4437 23.2626 10.1772 23.2558 7.84884C23.2558 5.5 22.5116 3.26745 21.1046 1.39535C20.9659 1.21032 20.9063 0.977733 20.939 0.748764C20.9717 0.519795 21.094 0.313198 21.2791 0.174422C21.4641 0.0356462 21.6967 -0.0239413 21.9257 0.00876853C22.1546 0.0414784 22.3612 0.163806 22.5 0.348841C24.1395 2.52326 25 5.11628 25 7.84884C25 10.5814 24.1395 13.1744 22.5 15.3488C22.3256 15.5814 22.0698 15.6977 21.8023 15.6977ZM3.19767 15.6977C2.93023 15.6977 2.67442 15.5814 2.5 15.3488C0.860465 13.1744 0 10.5814 0 7.84884C0 5.11628 0.860465 2.52326 2.5 0.348841C2.63878 0.163806 2.84537 0.0414784 3.07434 0.00876853C3.30331 -0.0239413 3.5359 0.0356462 3.72093 0.174422C3.90596 0.313198 4.02829 0.519795 4.061 0.748764C4.09371 0.977733 4.03412 1.21032 3.89535 1.39535C2.49293 3.25395 1.73741 5.52051 1.74419 7.84884C1.74419 10.1977 2.48837 12.4302 3.89535 14.3023C3.99252 14.4319 4.0517 14.586 4.06624 14.7473C4.08079 14.9086 4.05013 15.0707 3.9777 15.2156C3.90527 15.3605 3.79393 15.4823 3.65616 15.5674C3.51839 15.6526 3.35963 15.6977 3.19767 15.6977ZM18.0826 12.9058C17.9206 12.9058 17.7618 12.8607 17.6241 12.7756C17.4863 12.6904 17.375 12.5686 17.3025 12.4237C17.2301 12.2789 17.1994 12.1167 17.214 11.9554C17.2285 11.7941 17.2877 11.64 17.3849 11.5105C18.1872 10.4523 18.6058 9.18489 18.6058 7.84768C18.6058 6.51047 18.1872 5.24303 17.3849 4.18489C17.2461 3.99985 17.1865 3.76727 17.2192 3.5383C17.2519 3.30933 17.3743 3.10273 17.5593 2.96396C17.7443 2.82518 17.9769 2.76559 18.2059 2.7983C18.4349 2.83101 18.6415 2.95334 18.7802 3.13838C19.8007 4.49619 20.3517 6.14915 20.35 7.84768C20.35 9.55698 19.8035 11.1965 18.7802 12.557C18.6058 12.7895 18.35 12.9058 18.0826 12.9058ZM6.9186 12.9058C6.65116 12.9058 6.39535 12.7895 6.22093 12.557C5.19887 11.2 4.6477 9.54649 4.65116 7.84768C4.65116 6.13837 5.19767 4.49884 6.22093 3.13838C6.35971 2.95334 6.5663 2.83101 6.79527 2.7983C7.02424 2.76559 7.25683 2.82518 7.44186 2.96396C7.6269 3.10273 7.74922 3.30933 7.78193 3.5383C7.81464 3.76727 7.75506 3.99985 7.61628 4.18489C6.81395 5.24303 6.39535 6.51047 6.39535 7.84768C6.39535 9.18489 6.81395 10.4523 7.61628 11.5105C7.71345 11.64 7.77263 11.7941 7.78717 11.9554C7.80172 12.1167 7.77106 12.2789 7.69863 12.4237C7.6262 12.5686 7.51486 12.6904 7.37709 12.7756C7.23932 12.8607 7.08056 12.9058 6.9186 12.9058Z" fill="#0C760A"/>
</svg>
